<svg width="198" height="87" viewBox="0 0 198 87" fill="none" xmlns="http://www.w3.org/2000/svg">
<path d="M0.816 85V83.72L3.376 82.696C5.08267 82.0987 6.192 81.288 6.704 80.264C7.30133 79.24 7.6 77.9173 7.6 76.296V9.352C7.6 7.64533 7.30133 6.28 6.704 5.256C6.192 4.23199 5.08267 3.42133 3.376 2.824L0.816 1.8V0.519997H33.328V1.8L31.152 2.696C29.5307 3.29333 28.4213 4.104 27.824 5.128C27.2267 6.06666 26.928 7.38933 26.928 9.09599V40.2H57.52V9.09599C57.52 7.38933 57.2213 6.06666 56.624 5.128C56.112 4.104 55.0027 3.29333 53.296 2.696L50.992 1.8V0.519997H83.632V1.8L81.072 2.824C79.4507 3.42133 78.3413 4.23199 77.744 5.256C77.1467 6.28 76.848 7.64533 76.848 9.352V76.296C76.848 77.9173 77.1467 79.24 77.744 80.264C78.3413 81.288 79.4507 82.0987 81.072 82.696L83.632 83.72V85H50.992V83.72L53.296 82.952C55.0027 82.2693 56.112 81.4587 56.624 80.52C57.2213 79.496 57.52 78.1307 57.52 76.424V42.76H26.928V76.424C26.928 79.5813 28.336 81.7573 31.152 82.952L33.328 83.72V85H0.816ZM89.316 85V83.72L92.004 82.824C93.7107 82.2267 94.82 81.4587 95.332 80.52C95.844 79.496 96.1 78.088 96.1 76.296V9.352C96.1 7.64533 95.844 6.32266 95.332 5.384C94.9053 4.36 93.8813 3.54933 92.26 2.952L89.316 1.8V0.519997H125.924C135.993 0.519997 143.716 2.44 149.092 6.28C154.468 10.0347 157.156 15.2827 157.156 22.024C157.156 25.7787 155.748 29.5333 152.932 33.288C150.116 37.0427 145.679 39.944 139.62 41.992L157.412 77.32C158.18 78.7707 159.033 79.9653 159.972 80.904C160.996 81.7573 162.319 82.5253 163.94 83.208L165.604 83.848V85H142.692L123.748 44.68H115.044V76.296C115.044 77.9173 115.3 79.24 115.812 80.264C116.324 81.288 117.391 82.056 119.012 82.568L122.084 83.72V85H89.316ZM115.044 42.12H121.188C127.332 42.12 131.769 40.4987 134.5 37.256C137.231 33.928 138.596 29.0213 138.596 22.536C138.596 15.9653 137.316 11.1013 134.756 7.94399C132.196 4.70133 127.887 3.07999 121.828 3.07999H115.044V42.12ZM186.075 86.92C183.003 86.92 180.4 85.8533 178.267 83.72C176.134 81.5867 175.067 79.0267 175.067 76.04C175.067 73.0533 176.134 70.4507 178.267 68.232C180.4 66.0133 183.003 64.904 186.075 64.904C189.147 64.904 191.75 66.0133 193.883 68.232C196.016 70.4507 197.083 73.0533 197.083 76.04C197.083 79.0267 196.016 81.5867 193.883 83.72C191.75 85.8533 189.147 86.92 186.075 86.92Z" fill="#302D2D"/>
</svg>
