<svg width="77" height="34" viewBox="0 0 77 34" fill="none" xmlns="http://www.w3.org/2000/svg">
<path d="M0.1 33V32.5L1.1 32.1C1.76667 31.8667 2.2 31.55 2.4 31.15C2.63333 30.75 2.75 30.2333 2.75 29.6V3.45C2.75 2.78333 2.63333 2.25 2.4 1.85C2.2 1.45 1.76667 1.13333 1.1 0.899999L0.1 0.499998V-1.3113e-06H12.8V0.499998L11.95 0.85C11.3167 1.08333 10.8833 1.4 10.65 1.8C10.4167 2.16667 10.3 2.68333 10.3 3.35V15.5H22.25V3.35C22.25 2.68333 22.1333 2.16667 21.9 1.8C21.7 1.4 21.2667 1.08333 20.6 0.85L19.7 0.499998V-1.3113e-06H32.45V0.499998L31.45 0.899999C30.8167 1.13333 30.3833 1.45 30.15 1.85C29.9167 2.25 29.8 2.78333 29.8 3.45V29.6C29.8 30.2333 29.9167 30.75 30.15 31.15C30.3833 31.55 30.8167 31.8667 31.45 32.1L32.45 32.5V33H19.7V32.5L20.6 32.2C21.2667 31.9333 21.7 31.6167 21.9 31.25C22.1333 30.85 22.25 30.3167 22.25 29.65V16.5H10.3V29.65C10.3 30.8833 10.85 31.7333 11.95 32.2L12.8 32.5V33H0.1ZM34.6703 33V32.5L35.7203 32.15C36.387 31.9167 36.8203 31.6167 37.0203 31.25C37.2203 30.85 37.3203 30.3 37.3203 29.6V3.45C37.3203 2.78333 37.2203 2.26667 37.0203 1.9C36.8536 1.5 36.4536 1.18333 35.8203 0.949998L34.6703 0.499998V-1.3113e-06H48.9703C52.9036 -1.3113e-06 55.9203 0.749999 58.0203 2.25C60.1203 3.71667 61.1703 5.76667 61.1703 8.4C61.1703 9.86667 60.6203 11.3333 59.5203 12.8C58.4203 14.2667 56.687 15.4 54.3203 16.2L61.2703 30C61.5703 30.5667 61.9036 31.0333 62.2703 31.4C62.6703 31.7333 63.187 32.0333 63.8203 32.3L64.4703 32.55V33H55.5203L48.1203 17.25H44.7203V29.6C44.7203 30.2333 44.8203 30.75 45.0203 31.15C45.2203 31.55 45.637 31.85 46.2703 32.05L47.4703 32.5V33H34.6703ZM44.7203 16.25H47.1203C49.5203 16.25 51.2536 15.6167 52.3203 14.35C53.387 13.05 53.9203 11.1333 53.9203 8.6C53.9203 6.03333 53.4203 4.13333 52.4203 2.9C51.4203 1.63333 49.737 0.999998 47.3703 0.999998H44.7203V16.25ZM72.4668 33.75C71.2668 33.75 70.2501 33.3333 69.4168 32.5C68.5835 31.6667 68.1668 30.6667 68.1668 29.5C68.1668 28.3333 68.5835 27.3167 69.4168 26.45C70.2501 25.5833 71.2668 25.15 72.4668 25.15C73.6668 25.15 74.6835 25.5833 75.5168 26.45C76.3501 27.3167 76.7668 28.3333 76.7668 29.5C76.7668 30.6667 76.3501 31.6667 75.5168 32.5C74.6835 33.3333 73.6668 33.75 72.4668 33.75Z" fill="#302D2D"/>
</svg>
